<svg width="215" height="40" viewBox="0 0 215 40" fill="none" xmlns="http://www.w3.org/2000/svg">
<g clip-path="url(#clip0_6829_53489)">
<rect x="14.5349" y="10.9302" width="25.4651" height="29.0698" fill="#005EFD"/>
<path d="M10.2326 7.7907V31.1628H0V0H31.6279V7.7907H10.2326Z" fill="#042767" stroke="black"/>
<path d="M51.944 29V11.648H63.86L63.848 14.6H55.46V18.812H62.744V21.704H55.436V26.012L63.98 26.024V29H51.944ZM71.3561 29.24C69.6921 29.24 68.3961 28.668 67.4681 27.524C66.5401 26.372 66.0761 24.772 66.0761 22.724C66.0761 21.428 66.2641 20.304 66.6401 19.352C67.0161 18.4 67.5721 17.664 68.3081 17.144C69.0441 16.616 69.9441 16.352 71.0081 16.352C71.4561 16.352 71.8721 16.404 72.2561 16.508C72.6481 16.604 73.0041 16.74 73.3241 16.916C73.6441 17.092 73.9241 17.296 74.1641 17.528C74.4041 17.76 74.6001 18.008 74.7521 18.272V11.168H78.2681V29H75.7241L75.3281 26.456C75.2081 26.8 75.0481 27.136 74.8481 27.464C74.6561 27.792 74.4041 28.092 74.0921 28.364C73.7801 28.628 73.3961 28.84 72.9401 29C72.4921 29.16 71.9641 29.24 71.3561 29.24ZM72.1241 26.72C73.0041 26.72 73.6601 26.412 74.0921 25.796C74.5321 25.18 74.7521 24.14 74.7521 22.676C74.7441 21.828 74.6441 21.124 74.4521 20.564C74.2601 20.004 73.9721 19.588 73.5881 19.316C73.2121 19.036 72.7321 18.896 72.1481 18.896C71.3881 18.896 70.7561 19.188 70.2521 19.772C69.7481 20.348 69.4961 21.316 69.4961 22.676C69.4961 24.06 69.7321 25.08 70.2041 25.736C70.6761 26.392 71.3161 26.72 72.1241 26.72ZM85.8376 29.24C85.2616 29.24 84.6936 29.152 84.1336 28.976C83.5816 28.8 83.0776 28.54 82.6216 28.196C82.1656 27.852 81.7976 27.428 81.5176 26.924C81.2456 26.42 81.1096 25.836 81.1096 25.172V16.592H84.6136V24.728C84.6136 25.304 84.8016 25.776 85.1776 26.144C85.5536 26.512 86.1056 26.696 86.8336 26.696C87.5216 26.696 88.0656 26.52 88.4656 26.168C88.8736 25.808 89.0776 25.308 89.0776 24.668V16.592H92.5456V29H89.9056L89.4976 26.54C89.3536 27.268 89.0816 27.828 88.6816 28.22C88.2896 28.604 87.8376 28.868 87.3256 29.012C86.8216 29.164 86.3256 29.24 85.8376 29.24ZM100.939 29.24C99.7871 29.24 98.7591 28.984 97.8551 28.472C96.9511 27.96 96.2391 27.228 95.7191 26.276C95.2071 25.316 94.9511 24.172 94.9511 22.844C94.9511 21.564 95.1991 20.436 95.6951 19.46C96.1911 18.484 96.8871 17.724 97.7831 17.18C98.6871 16.628 99.7391 16.352 100.939 16.352C101.979 16.352 102.875 16.564 103.627 16.988C104.387 17.412 104.983 17.984 105.415 18.704C105.855 19.424 106.107 20.228 106.171 21.116H103.255C103.199 20.788 103.083 20.464 102.907 20.144C102.731 19.816 102.483 19.548 102.163 19.34C101.843 19.124 101.443 19.016 100.963 19.016C100.147 19.016 99.4831 19.332 98.9711 19.964C98.4671 20.588 98.2151 21.54 98.2151 22.82C98.2151 24.028 98.4631 24.988 98.9591 25.7C99.4551 26.404 100.147 26.756 101.035 26.756C101.507 26.756 101.899 26.64 102.211 26.408C102.531 26.176 102.779 25.9 102.955 25.58C103.131 25.252 103.243 24.948 103.291 24.668H106.135C106.079 25.524 105.831 26.3 105.391 26.996C104.951 27.684 104.351 28.232 103.591 28.64C102.839 29.04 101.955 29.24 100.939 29.24ZM114.053 29.24C112.837 29.24 111.777 28.98 110.873 28.46C109.977 27.94 109.281 27.204 108.785 26.252C108.297 25.3 108.053 24.172 108.053 22.868C108.053 21.564 108.297 20.424 108.785 19.448C109.281 18.472 109.977 17.712 110.873 17.168C111.777 16.624 112.841 16.352 114.065 16.352C115.289 16.352 116.349 16.62 117.245 17.156C118.141 17.684 118.833 18.436 119.321 19.412C119.809 20.388 120.053 21.54 120.053 22.868C120.053 24.116 119.813 25.22 119.333 26.18C118.861 27.132 118.177 27.88 117.281 28.424C116.393 28.968 115.317 29.24 114.053 29.24ZM114.065 26.636C114.681 26.636 115.177 26.456 115.553 26.096C115.929 25.736 116.201 25.264 116.369 24.68C116.537 24.088 116.621 23.444 116.621 22.748C116.621 22.092 116.545 21.472 116.393 20.888C116.241 20.304 115.977 19.832 115.601 19.472C115.225 19.112 114.713 18.932 114.065 18.932C113.449 18.932 112.949 19.104 112.565 19.448C112.189 19.784 111.913 20.244 111.737 20.828C111.561 21.404 111.473 22.044 111.473 22.748C111.473 23.396 111.553 24.02 111.713 24.62C111.873 25.212 112.141 25.696 112.517 26.072C112.893 26.448 113.409 26.636 114.065 26.636ZM122.445 29V16.592H125.889V18.344C126.081 18.04 126.329 17.748 126.633 17.468C126.945 17.18 127.337 16.944 127.809 16.76C128.281 16.576 128.841 16.484 129.489 16.484C130.249 16.484 130.957 16.632 131.613 16.928C132.277 17.224 132.813 17.692 133.221 18.332C133.629 18.964 133.833 19.792 133.833 20.816V29H130.329V21.248C130.329 20.576 130.129 20.072 129.729 19.736C129.329 19.4 128.841 19.232 128.265 19.232C127.881 19.232 127.509 19.3 127.149 19.436C126.797 19.572 126.509 19.776 126.285 20.048C126.061 20.32 125.949 20.656 125.949 21.056V29H122.445ZM136.672 29V16.592H140.116V18.344C140.308 18.04 140.556 17.748 140.86 17.468C141.172 17.18 141.564 16.944 142.036 16.76C142.508 16.576 143.068 16.484 143.716 16.484C144.476 16.484 145.184 16.632 145.84 16.928C146.504 17.224 147.04 17.692 147.448 18.332C147.856 18.964 148.06 19.792 148.06 20.816V29H144.556V21.248C144.556 20.576 144.356 20.072 143.956 19.736C143.556 19.4 143.068 19.232 142.492 19.232C142.108 19.232 141.736 19.3 141.376 19.436C141.024 19.572 140.736 19.776 140.512 20.048C140.288 20.32 140.176 20.656 140.176 21.056V29H136.672ZM156.598 29.24C155.366 29.24 154.282 28.984 153.346 28.472C152.418 27.952 151.694 27.22 151.174 26.276C150.654 25.332 150.394 24.22 150.394 22.94C150.394 21.7 150.63 20.584 151.102 19.592C151.582 18.592 152.27 17.804 153.166 17.228C154.062 16.644 155.146 16.352 156.418 16.352C157.682 16.352 158.742 16.62 159.598 17.156C160.454 17.684 161.102 18.424 161.542 19.376C161.982 20.32 162.202 21.412 162.202 22.652V23.6H153.862C153.862 24.232 153.966 24.784 154.174 25.256C154.382 25.72 154.682 26.08 155.074 26.336C155.474 26.584 155.954 26.708 156.514 26.708C157.114 26.708 157.638 26.58 158.086 26.324C158.534 26.068 158.85 25.648 159.034 25.064H162.19C162.046 25.944 161.694 26.696 161.134 27.32C160.574 27.944 159.894 28.42 159.094 28.748C158.294 29.076 157.462 29.24 156.598 29.24ZM153.862 21.512H158.926C158.926 21.016 158.83 20.56 158.638 20.144C158.454 19.728 158.174 19.4 157.798 19.16C157.43 18.92 156.966 18.8 156.406 18.8C155.87 18.8 155.41 18.932 155.026 19.196C154.65 19.452 154.358 19.788 154.15 20.204C153.95 20.62 153.854 21.056 153.862 21.512ZM170.127 29.24C168.975 29.24 167.947 28.984 167.043 28.472C166.139 27.96 165.427 27.228 164.907 26.276C164.395 25.316 164.139 24.172 164.139 22.844C164.139 21.564 164.387 20.436 164.883 19.46C165.379 18.484 166.075 17.724 166.971 17.18C167.875 16.628 168.927 16.352 170.127 16.352C171.167 16.352 172.063 16.564 172.815 16.988C173.575 17.412 174.171 17.984 174.603 18.704C175.043 19.424 175.295 20.228 175.359 21.116H172.443C172.387 20.788 172.271 20.464 172.095 20.144C171.919 19.816 171.671 19.548 171.351 19.34C171.031 19.124 170.631 19.016 170.151 19.016C169.335 19.016 168.671 19.332 168.159 19.964C167.655 20.588 167.403 21.54 167.403 22.82C167.403 24.028 167.651 24.988 168.147 25.7C168.643 26.404 169.335 26.756 170.223 26.756C170.695 26.756 171.087 26.64 171.399 26.408C171.719 26.176 171.967 25.9 172.143 25.58C172.319 25.252 172.431 24.948 172.479 24.668H175.323C175.267 25.524 175.019 26.3 174.579 26.996C174.139 27.684 173.539 28.232 172.779 28.64C172.027 29.04 171.143 29.24 170.127 29.24ZM182.805 29.132C181.709 29.132 180.861 28.992 180.261 28.712C179.669 28.432 179.257 28.04 179.025 27.536C178.801 27.032 178.689 26.448 178.689 25.784V19.028H176.673V16.592H178.797L179.685 12.848H182.181V16.58H184.941V19.028H182.181L182.205 25.64C182.205 25.944 182.241 26.172 182.313 26.324C182.393 26.468 182.513 26.564 182.673 26.612C182.841 26.652 183.053 26.672 183.309 26.672H184.977V28.832C184.809 28.904 184.557 28.972 184.221 29.036C183.885 29.1 183.413 29.132 182.805 29.132ZM191.892 29.24C191.316 29.24 190.748 29.152 190.188 28.976C189.636 28.8 189.132 28.54 188.676 28.196C188.22 27.852 187.852 27.428 187.572 26.924C187.3 26.42 187.164 25.836 187.164 25.172V16.592H190.668V24.728C190.668 25.304 190.856 25.776 191.232 26.144C191.608 26.512 192.16 26.696 192.888 26.696C193.576 26.696 194.12 26.52 194.52 26.168C194.928 25.808 195.132 25.308 195.132 24.668V16.592H198.6V29H195.96L195.552 26.54C195.408 27.268 195.136 27.828 194.736 28.22C194.344 28.604 193.892 28.868 193.38 29.012C192.876 29.164 192.38 29.24 191.892 29.24ZM201.664 32.864V16.592H205.18L205.192 18.38C205.376 18.084 205.6 17.816 205.864 17.576C206.136 17.328 206.436 17.112 206.764 16.928C207.092 16.744 207.448 16.604 207.832 16.508C208.216 16.404 208.62 16.352 209.044 16.352C209.964 16.352 210.784 16.58 211.504 17.036C212.224 17.484 212.788 18.18 213.196 19.124C213.612 20.06 213.82 21.252 213.82 22.7C213.82 24.204 213.596 25.44 213.148 26.408C212.708 27.368 212.1 28.08 211.324 28.544C210.548 29.008 209.672 29.24 208.696 29.24C208.296 29.24 207.92 29.184 207.568 29.072C207.216 28.968 206.888 28.82 206.584 28.628C206.288 28.436 206.02 28.216 205.78 27.968C205.548 27.712 205.344 27.436 205.168 27.14V32.864H201.664ZM207.856 26.672C208.616 26.672 209.252 26.356 209.764 25.724C210.284 25.092 210.544 24.092 210.544 22.724C210.544 21.524 210.296 20.588 209.8 19.916C209.312 19.236 208.664 18.896 207.856 18.896C206.952 18.896 206.276 19.264 205.828 20C205.388 20.728 205.168 21.636 205.168 22.724C205.168 23.42 205.264 24.068 205.456 24.668C205.656 25.268 205.952 25.752 206.344 26.12C206.744 26.488 207.248 26.672 207.856 26.672Z" fill="#042767"/>
</g>
<defs>
<clipPath id="clip0_6829_53489">
<rect width="215" height="40" fill="white"/>
</clipPath>
</defs>
</svg>
